<mxfile host="app.diagrams.net" modified="2023-05-17T03:35:23.944Z" agent="Mozilla/5.0 (Windows NT 10.0; Win64; x64; rv:109.0) Gecko/20100101 Firefox/114.0" etag="vwWtX8kUda0euUJOp4Wt" version="21.3.2" type="device">
  <diagram name="Page-1" id="AlQgFYiAesxGKjzgry_K">
    <mxGraphModel dx="5436" dy="2458" grid="1" gridSize="10" guides="1" tooltips="1" connect="1" arrows="1" fold="1" page="1" pageScale="1" pageWidth="827" pageHeight="1169" math="0" shadow="0">
      <root>
        <mxCell id="0" />
        <mxCell id="1" parent="0" />
        <mxCell id="VzBomBVX7HgXpCq8d6OW-27" value=":Utilisateur" style="shape=umlLifeline;perimeter=lifelinePerimeter;whiteSpace=wrap;html=1;container=1;dropTarget=0;collapsible=0;recursiveResize=0;outlineConnect=0;portConstraint=eastwest;newEdgeStyle={&quot;edgeStyle&quot;:&quot;elbowEdgeStyle&quot;,&quot;elbow&quot;:&quot;vertical&quot;,&quot;curved&quot;:0,&quot;rounded&quot;:0};" parent="1" vertex="1">
          <mxGeometry x="39" y="200" width="100" height="1080" as="geometry" />
        </mxCell>
        <mxCell id="VzBomBVX7HgXpCq8d6OW-50" value="" style="html=1;points=[];perimeter=orthogonalPerimeter;outlineConnect=0;targetShapes=umlLifeline;portConstraint=eastwest;newEdgeStyle={&quot;edgeStyle&quot;:&quot;elbowEdgeStyle&quot;,&quot;elbow&quot;:&quot;vertical&quot;,&quot;curved&quot;:0,&quot;rounded&quot;:0};" parent="VzBomBVX7HgXpCq8d6OW-27" vertex="1">
          <mxGeometry x="45" y="160.2" width="10" height="779.8" as="geometry" />
        </mxCell>
        <mxCell id="VzBomBVX7HgXpCq8d6OW-28" value=":Blog" style="shape=umlLifeline;perimeter=lifelinePerimeter;whiteSpace=wrap;html=1;container=1;dropTarget=0;collapsible=0;recursiveResize=0;outlineConnect=0;portConstraint=eastwest;newEdgeStyle={&quot;edgeStyle&quot;:&quot;elbowEdgeStyle&quot;,&quot;elbow&quot;:&quot;vertical&quot;,&quot;curved&quot;:0,&quot;rounded&quot;:0};" parent="1" vertex="1">
          <mxGeometry x="363" y="200" width="100" height="1080" as="geometry" />
        </mxCell>
        <mxCell id="VzBomBVX7HgXpCq8d6OW-47" value="" style="html=1;points=[];perimeter=orthogonalPerimeter;outlineConnect=0;targetShapes=umlLifeline;portConstraint=eastwest;newEdgeStyle={&quot;edgeStyle&quot;:&quot;elbowEdgeStyle&quot;,&quot;elbow&quot;:&quot;vertical&quot;,&quot;curved&quot;:0,&quot;rounded&quot;:0};" parent="VzBomBVX7HgXpCq8d6OW-28" vertex="1">
          <mxGeometry x="45" y="160" width="10" height="80.2" as="geometry" />
        </mxCell>
        <mxCell id="K-DtrOPmyeC8XMphnXIH-2" value="" style="html=1;points=[];perimeter=orthogonalPerimeter;outlineConnect=0;targetShapes=umlLifeline;portConstraint=eastwest;newEdgeStyle={&quot;edgeStyle&quot;:&quot;elbowEdgeStyle&quot;,&quot;elbow&quot;:&quot;vertical&quot;,&quot;curved&quot;:0,&quot;rounded&quot;:0};" parent="VzBomBVX7HgXpCq8d6OW-28" vertex="1">
          <mxGeometry x="45" y="320" width="10" height="80.2" as="geometry" />
        </mxCell>
        <mxCell id="drv3APGmW7GYEXX_s7Kb-21" value="" style="html=1;points=[];perimeter=orthogonalPerimeter;outlineConnect=0;targetShapes=umlLifeline;portConstraint=eastwest;newEdgeStyle={&quot;edgeStyle&quot;:&quot;elbowEdgeStyle&quot;,&quot;elbow&quot;:&quot;vertical&quot;,&quot;curved&quot;:0,&quot;rounded&quot;:0};" parent="VzBomBVX7HgXpCq8d6OW-28" vertex="1">
          <mxGeometry x="45" y="695" width="10" height="80.2" as="geometry" />
        </mxCell>
        <mxCell id="drv3APGmW7GYEXX_s7Kb-27" value="" style="html=1;points=[];perimeter=orthogonalPerimeter;outlineConnect=0;targetShapes=umlLifeline;portConstraint=eastwest;newEdgeStyle={&quot;edgeStyle&quot;:&quot;elbowEdgeStyle&quot;,&quot;elbow&quot;:&quot;vertical&quot;,&quot;curved&quot;:0,&quot;rounded&quot;:0};" parent="VzBomBVX7HgXpCq8d6OW-28" vertex="1">
          <mxGeometry x="45" y="855" width="10" height="80.2" as="geometry" />
        </mxCell>
        <mxCell id="Kt3bTRJJ_USKNN57myqg-8" value="" style="html=1;points=[];perimeter=orthogonalPerimeter;outlineConnect=0;targetShapes=umlLifeline;portConstraint=eastwest;newEdgeStyle={&quot;edgeStyle&quot;:&quot;elbowEdgeStyle&quot;,&quot;elbow&quot;:&quot;vertical&quot;,&quot;curved&quot;:0,&quot;rounded&quot;:0};" vertex="1" parent="VzBomBVX7HgXpCq8d6OW-28">
          <mxGeometry x="46" y="480" width="10" height="80.2" as="geometry" />
        </mxCell>
        <mxCell id="drv3APGmW7GYEXX_s7Kb-1" value=":BDD" style="shape=umlLifeline;perimeter=lifelinePerimeter;whiteSpace=wrap;html=1;container=1;dropTarget=0;collapsible=0;recursiveResize=0;outlineConnect=0;portConstraint=eastwest;newEdgeStyle={&quot;edgeStyle&quot;:&quot;elbowEdgeStyle&quot;,&quot;elbow&quot;:&quot;vertical&quot;,&quot;curved&quot;:0,&quot;rounded&quot;:0};" parent="1" vertex="1">
          <mxGeometry x="689" y="200" width="100" height="1080" as="geometry" />
        </mxCell>
        <mxCell id="drv3APGmW7GYEXX_s7Kb-24" value="" style="html=1;points=[];perimeter=orthogonalPerimeter;outlineConnect=0;targetShapes=umlLifeline;portConstraint=eastwest;newEdgeStyle={&quot;edgeStyle&quot;:&quot;elbowEdgeStyle&quot;,&quot;elbow&quot;:&quot;vertical&quot;,&quot;curved&quot;:0,&quot;rounded&quot;:0};" parent="drv3APGmW7GYEXX_s7Kb-1" vertex="1">
          <mxGeometry x="45" y="775.2" width="10" height="80.2" as="geometry" />
        </mxCell>
        <mxCell id="Kt3bTRJJ_USKNN57myqg-5" value="" style="html=1;points=[];perimeter=orthogonalPerimeter;outlineConnect=0;targetShapes=umlLifeline;portConstraint=eastwest;newEdgeStyle={&quot;edgeStyle&quot;:&quot;elbowEdgeStyle&quot;,&quot;elbow&quot;:&quot;vertical&quot;,&quot;curved&quot;:0,&quot;rounded&quot;:0};" vertex="1" parent="drv3APGmW7GYEXX_s7Kb-1">
          <mxGeometry x="45" y="400" width="10" height="80.2" as="geometry" />
        </mxCell>
        <mxCell id="drv3APGmW7GYEXX_s7Kb-19" style="edgeStyle=elbowEdgeStyle;rounded=0;orthogonalLoop=1;jettySize=auto;html=1;elbow=vertical;curved=0;" parent="1" source="VzBomBVX7HgXpCq8d6OW-50" edge="1">
          <mxGeometry relative="1" as="geometry">
            <Array as="points">
              <mxPoint x="257" y="360" />
            </Array>
            <mxPoint x="412.5" y="360" as="targetPoint" />
          </mxGeometry>
        </mxCell>
        <mxCell id="drv3APGmW7GYEXX_s7Kb-20" value="Accède à la page listant les articles" style="edgeLabel;html=1;align=center;verticalAlign=middle;resizable=0;points=[];" parent="drv3APGmW7GYEXX_s7Kb-19" vertex="1" connectable="0">
          <mxGeometry x="0.2055" relative="1" as="geometry">
            <mxPoint x="-36" y="-10" as="offset" />
          </mxGeometry>
        </mxCell>
        <mxCell id="drv3APGmW7GYEXX_s7Kb-22" style="edgeStyle=elbowEdgeStyle;rounded=0;orthogonalLoop=1;jettySize=auto;html=1;elbow=vertical;curved=0;" parent="1" target="drv3APGmW7GYEXX_s7Kb-21" edge="1">
          <mxGeometry relative="1" as="geometry">
            <Array as="points">
              <mxPoint x="279" y="895" />
            </Array>
            <mxPoint x="94" y="895" as="sourcePoint" />
          </mxGeometry>
        </mxCell>
        <mxCell id="drv3APGmW7GYEXX_s7Kb-23" value="Ajoute un commentaire" style="edgeLabel;html=1;align=center;verticalAlign=middle;resizable=0;points=[];" parent="drv3APGmW7GYEXX_s7Kb-22" vertex="1" connectable="0">
          <mxGeometry x="-0.245" y="-1" relative="1" as="geometry">
            <mxPoint x="38" y="-16" as="offset" />
          </mxGeometry>
        </mxCell>
        <mxCell id="drv3APGmW7GYEXX_s7Kb-25" style="edgeStyle=elbowEdgeStyle;rounded=0;orthogonalLoop=1;jettySize=auto;html=1;elbow=vertical;curved=0;" parent="1" source="drv3APGmW7GYEXX_s7Kb-21" target="drv3APGmW7GYEXX_s7Kb-24" edge="1">
          <mxGeometry relative="1" as="geometry">
            <Array as="points">
              <mxPoint x="599" y="975" />
            </Array>
          </mxGeometry>
        </mxCell>
        <mxCell id="drv3APGmW7GYEXX_s7Kb-26" value="Enregistre le commentaire en BDD" style="edgeLabel;html=1;align=center;verticalAlign=middle;resizable=0;points=[];" parent="drv3APGmW7GYEXX_s7Kb-25" vertex="1" connectable="0">
          <mxGeometry x="-0.3621" y="-1" relative="1" as="geometry">
            <mxPoint x="65" y="-11" as="offset" />
          </mxGeometry>
        </mxCell>
        <mxCell id="drv3APGmW7GYEXX_s7Kb-28" style="edgeStyle=elbowEdgeStyle;rounded=0;orthogonalLoop=1;jettySize=auto;html=1;elbow=vertical;curved=0;dashed=1;" parent="1" source="drv3APGmW7GYEXX_s7Kb-24" target="drv3APGmW7GYEXX_s7Kb-27" edge="1">
          <mxGeometry relative="1" as="geometry" />
        </mxCell>
        <mxCell id="drv3APGmW7GYEXX_s7Kb-29" value="Confirme l&#39;enregistrement du commentaire" style="edgeLabel;html=1;align=center;verticalAlign=middle;resizable=0;points=[];" parent="drv3APGmW7GYEXX_s7Kb-28" vertex="1" connectable="0">
          <mxGeometry x="0.4664" y="1" relative="1" as="geometry">
            <mxPoint x="86" y="-11" as="offset" />
          </mxGeometry>
        </mxCell>
        <mxCell id="drv3APGmW7GYEXX_s7Kb-30" style="edgeStyle=elbowEdgeStyle;rounded=0;orthogonalLoop=1;jettySize=auto;html=1;elbow=vertical;curved=0;dashed=1;" parent="1" source="drv3APGmW7GYEXX_s7Kb-27" edge="1">
          <mxGeometry relative="1" as="geometry">
            <Array as="points">
              <mxPoint x="239" y="1135" />
            </Array>
            <mxPoint x="94" y="1135" as="targetPoint" />
          </mxGeometry>
        </mxCell>
        <mxCell id="drv3APGmW7GYEXX_s7Kb-31" value="Affiche un message de validation" style="edgeLabel;html=1;align=center;verticalAlign=middle;resizable=0;points=[];" parent="drv3APGmW7GYEXX_s7Kb-30" vertex="1" connectable="0">
          <mxGeometry x="-0.4228" y="1" relative="1" as="geometry">
            <mxPoint x="-84" y="-11" as="offset" />
          </mxGeometry>
        </mxCell>
        <mxCell id="Kt3bTRJJ_USKNN57myqg-1" style="edgeStyle=elbowEdgeStyle;rounded=0;orthogonalLoop=1;jettySize=auto;html=1;elbow=vertical;curved=0;dashed=1;" edge="1" parent="1" source="VzBomBVX7HgXpCq8d6OW-47" target="VzBomBVX7HgXpCq8d6OW-50">
          <mxGeometry relative="1" as="geometry">
            <Array as="points">
              <mxPoint x="160" y="440" />
            </Array>
          </mxGeometry>
        </mxCell>
        <mxCell id="Kt3bTRJJ_USKNN57myqg-2" value="Affiche la page listant les articles" style="edgeLabel;html=1;align=center;verticalAlign=middle;resizable=0;points=[];" vertex="1" connectable="0" parent="Kt3bTRJJ_USKNN57myqg-1">
          <mxGeometry x="0.1456" y="1" relative="1" as="geometry">
            <mxPoint x="20" y="-11" as="offset" />
          </mxGeometry>
        </mxCell>
        <mxCell id="Kt3bTRJJ_USKNN57myqg-3" style="edgeStyle=elbowEdgeStyle;rounded=0;orthogonalLoop=1;jettySize=auto;html=1;elbow=vertical;curved=0;" edge="1" parent="1" source="VzBomBVX7HgXpCq8d6OW-50" target="K-DtrOPmyeC8XMphnXIH-2">
          <mxGeometry relative="1" as="geometry">
            <Array as="points">
              <mxPoint x="360" y="520" />
            </Array>
          </mxGeometry>
        </mxCell>
        <mxCell id="Kt3bTRJJ_USKNN57myqg-4" value="Sélectionne un article" style="edgeLabel;html=1;align=center;verticalAlign=middle;resizable=0;points=[];" vertex="1" connectable="0" parent="Kt3bTRJJ_USKNN57myqg-3">
          <mxGeometry x="-0.1856" y="1" relative="1" as="geometry">
            <mxPoint x="26" y="-9" as="offset" />
          </mxGeometry>
        </mxCell>
        <mxCell id="Kt3bTRJJ_USKNN57myqg-6" style="edgeStyle=elbowEdgeStyle;rounded=0;orthogonalLoop=1;jettySize=auto;html=1;elbow=vertical;curved=0;" edge="1" parent="1" source="K-DtrOPmyeC8XMphnXIH-2" target="Kt3bTRJJ_USKNN57myqg-5">
          <mxGeometry relative="1" as="geometry" />
        </mxCell>
        <mxCell id="Kt3bTRJJ_USKNN57myqg-7" value="Récupère les détails de l&#39;article" style="edgeLabel;html=1;align=center;verticalAlign=middle;resizable=0;points=[];" vertex="1" connectable="0" parent="Kt3bTRJJ_USKNN57myqg-6">
          <mxGeometry x="0.1745" y="1" relative="1" as="geometry">
            <mxPoint x="-24" y="-9" as="offset" />
          </mxGeometry>
        </mxCell>
        <mxCell id="Kt3bTRJJ_USKNN57myqg-9" style="edgeStyle=elbowEdgeStyle;rounded=0;orthogonalLoop=1;jettySize=auto;html=1;elbow=vertical;curved=0;dashed=1;" edge="1" parent="1" source="Kt3bTRJJ_USKNN57myqg-5" target="Kt3bTRJJ_USKNN57myqg-8">
          <mxGeometry relative="1" as="geometry" />
        </mxCell>
        <mxCell id="Kt3bTRJJ_USKNN57myqg-10" value="Renvoie les détails de l&#39;article" style="edgeLabel;html=1;align=center;verticalAlign=middle;resizable=0;points=[];" vertex="1" connectable="0" parent="Kt3bTRJJ_USKNN57myqg-9">
          <mxGeometry x="-0.3061" y="1" relative="1" as="geometry">
            <mxPoint x="-45" y="-11" as="offset" />
          </mxGeometry>
        </mxCell>
        <mxCell id="Kt3bTRJJ_USKNN57myqg-11" style="edgeStyle=elbowEdgeStyle;rounded=0;orthogonalLoop=1;jettySize=auto;html=1;elbow=vertical;curved=0;dashed=1;" edge="1" parent="1" source="Kt3bTRJJ_USKNN57myqg-8" target="VzBomBVX7HgXpCq8d6OW-50">
          <mxGeometry relative="1" as="geometry">
            <Array as="points">
              <mxPoint x="300" y="760" />
            </Array>
          </mxGeometry>
        </mxCell>
        <mxCell id="Kt3bTRJJ_USKNN57myqg-12" value="Affiche les détails de l&#39;article" style="edgeLabel;html=1;align=center;verticalAlign=middle;resizable=0;points=[];" vertex="1" connectable="0" parent="Kt3bTRJJ_USKNN57myqg-11">
          <mxGeometry x="-0.4794" relative="1" as="geometry">
            <mxPoint x="-79" y="-10" as="offset" />
          </mxGeometry>
        </mxCell>
        <mxCell id="Kt3bTRJJ_USKNN57myqg-13" value="frame" style="shape=umlFrame;whiteSpace=wrap;html=1;pointerEvents=0;" vertex="1" parent="1">
          <mxGeometry x="-320" y="320" width="1200" height="850" as="geometry" />
        </mxCell>
        <mxCell id="Kt3bTRJJ_USKNN57myqg-14" value="&lt;font style=&quot;font-size: 24px;&quot;&gt;Ajouter un commentaire&lt;/font&gt;" style="text;html=1;align=center;verticalAlign=middle;resizable=0;points=[];autosize=1;strokeColor=none;fillColor=none;" vertex="1" parent="1">
          <mxGeometry x="-300" y="370" width="280" height="40" as="geometry" />
        </mxCell>
      </root>
    </mxGraphModel>
  </diagram>
</mxfile>
